<?xml version="1.0" standalone="no"?>
<!DOCTYPE svg PUBLIC "-//W3C//DTD SVG 20010904//EN"
 "http://www.w3.org/TR/2001/REC-SVG-20010904/DTD/svg10.dtd">
<svg version="1.0" xmlns="http://www.w3.org/2000/svg"
 width="256.000000pt" height="256.000000pt" viewBox="0 0 256.000000 256.000000"
 preserveAspectRatio="xMidYMid meet">
<metadata>
Created by potrace 1.14, written by Peter Selinger 2001-2017
</metadata>
<g transform="translate(0.000000,256.000000) scale(0.100000,-0.100000)"
fill="#000000" stroke="none">
<path d="M760 2066 c-19 -24 -5 -46 29 -46 20 0 36 -8 50 -26 21 -26 21 -36
21 -519 l0 -492 50 -47 c28 -26 56 -46 63 -43 9 3 13 102 15 410 2 316 5 407
15 407 6 0 44 13 83 29 232 95 532 54 724 -98 25 -20 78 -67 118 -105 40 -38
75 -66 78 -63 3 3 6 49 7 101 0 88 -2 98 -23 121 -27 28 -155 118 -185 129
-12 4 -15 10 -8 14 6 4 12 37 15 74 5 77 23 105 72 110 23 2 32 8 34 26 4 26
15 25 -168 23 -80 0 -151 -1 -158 -1 -8 0 -12 -9 -10 -22 2 -16 12 -24 37 -29
46 -10 62 -29 66 -80 1 -24 3 -47 4 -51 0 -3 17 -12 37 -18 19 -7 34 -14 32
-16 -2 -2 -42 10 -90 25 -121 41 -277 57 -406 42 -99 -12 -209 -38 -251 -60
-21 -11 -21 -10 -21 57 0 77 8 90 63 101 23 5 33 13 35 29 3 22 2 22 -141 22
-80 0 -152 2 -160 5 -7 3 -20 -1 -27 -9z"/>
<path d="M788 1735 c-185 -141 -276 -381 -222 -589 42 -164 182 -327 359 -419
28 -14 46 -26 42 -27 -4 0 -25 9 -47 20 -25 13 -41 16 -45 9 -12 -18 45 -117
88 -155 203 -178 612 -160 778 34 68 80 69 86 69 578 0 492 7 446 -74 494 -31
19 -40 20 -47 9 -5 -8 -9 -216 -9 -462 0 -440 0 -448 -19 -442 -11 3 -54 -1
-95 -9 -41 -9 -124 -16 -183 -16 -166 0 -295 37 -415 116 -87 58 -142 121
-187 214 -31 65 -36 86 -39 165 -5 105 17 185 74 270 33 50 34 55 34 149 0 53
-4 96 -9 96 -4 0 -29 -16 -53 -35z m882 -988 c0 -7 -7 -22 -15 -33 -13 -17
-13 -16 -3 14 13 34 18 40 18 19z m-619 -73 c95 -33 185 -47 314 -47 137 0
216 13 251 41 11 9 3 0 -19 -20 -105 -100 -391 -107 -515 -11 -20 15 -48 33
-62 40 -36 17 -19 15 31 -3z"/>
<path d="M1330 1750 c-302 -59 -403 -597 -160 -854 70 -74 132 -100 221 -94
58 5 76 11 125 45 73 50 124 121 124 174 0 53 -17 49 -65 -15 -49 -66 -85 -92
-150 -107 -96 -22 -172 18 -218 113 -35 74 -47 142 -47 266 0 209 60 345 162
373 101 27 198 -32 279 -168 28 -49 39 -41 39 28 0 54 -4 67 -35 109 -75 102
-177 150 -275 130z"/>
<path d="M1903 949 l-83 -70 0 -70 c0 -38 4 -69 9 -69 11 0 166 114 176 129 5
10 9 87 6 139 -2 24 -27 10 -108 -59z"/>
</g>
</svg>
